HIERARCHY
ROOT Hips
{
  OFFSET 53.9337 94.3415 16.4311
  CHANNELS 6 Xposition Yposition Zposition Zrotation Xrotation Yrotation
  JOINT spine
  {
    OFFSET 0 7.80059 0.448573
    CHANNELS 3 Zrotation Xrotation Yrotation
    JOINT spine1
    {
      OFFSET 0 10.1364 0
      CHANNELS 3 Zrotation Xrotation Yrotation
      JOINT spine2
      {
        OFFSET 0 9.71251 0
        CHANNELS 3 Zrotation Xrotation Yrotation
        JOINT Neck
        {
          OFFSET 0 24.9361 1.18887
          CHANNELS 3 Zrotation Xrotation Yrotation
          JOINT Head
          {
            OFFSET 0 7.53384 0
            CHANNELS 3 Zrotation Xrotation Yrotation
            End Site
            {
              OFFSET 0 18.2361 -6.01402
            }
          }
        }
        JOINT RightShoulder
        {
          OFFSET -4.08965 10.4888 -0.569457
          CHANNELS 3 Zrotation Xrotation Yrotation
          JOINT RightArm
          {
            OFFSET 0 13.757 0
            CHANNELS 3 Zrotation Xrotation Yrotation
            JOINT RightArmRoll
            {
              OFFSET 0 6.94478 0
              CHANNELS 3 Zrotation Xrotation Yrotation
              JOINT RightForeArm
              {
                OFFSET 0 20.2277 0
                CHANNELS 3 Zrotation Xrotation Yrotation
                JOINT RightForeArmRoll
                {
                  OFFSET 0 7.79312 0
                  CHANNELS 3 Zrotation Xrotation Yrotation
                  JOINT RightHand
                  {
                    OFFSET 0 15.6391 0
                    CHANNELS 3 Zrotation Xrotation Yrotation
                    End Site
                    {
                      OFFSET 0 0 0
                    }
                  }
                }
              }
            }
          }
        }
        JOINT LeftShoulder
        {
          OFFSET 4.08965 10.4888 -0.569457
          CHANNELS 3 Zrotation Xrotation Yrotation
          JOINT LeftArm
          {
            OFFSET 0 13.757 0
            CHANNELS 3 Zrotation Xrotation Yrotation
            JOINT LeftArmRoll
            {
              OFFSET 0 6.94478 0
              CHANNELS 3 Zrotation Xrotation Yrotation
              JOINT LeftForeArm
              {
                OFFSET 0 20.2277 0
                CHANNELS 3 Zrotation Xrotation Yrotation
                JOINT LeftForeArmRoll
                {
                  OFFSET 0 7.79312 0
                  CHANNELS 3 Zrotation Xrotation Yrotation
                  JOINT LeftHand
                  {
                    OFFSET 0 15.6391 0
                    CHANNELS 3 Zrotation Xrotation Yrotation
                    End Site
                    {
                      OFFSET 0 0 0
                    }
                  }
                }
              }
            }
          }
        }
      }
    }
  }
  JOINT RightUpLeg
  {
    OFFSET -6.91416 -1.26788 -1.06358
    CHANNELS 3 Zrotation Xrotation Yrotation
    JOINT RightUpLegRoll
    {
      OFFSET 0 18.3378 0
      CHANNELS 3 Zrotation Xrotation Yrotation
      JOINT RightLeg
      {
        OFFSET 0 -22.7085 0
        CHANNELS 3 Zrotation Xrotation Yrotation
        JOINT RightLegRoll
        {
          OFFSET 0 22.7828 0
          CHANNELS 3 Zrotation Xrotation Yrotation
          JOINT RightFoot
          {
            OFFSET 0 18.9629 0
            CHANNELS 3 Zrotation Xrotation Yrotation
            JOINT RightToeBase
            {
              OFFSET 0 15.852 0
              CHANNELS 3 Zrotation Xrotation Yrotation
              End Site
              {
                OFFSET 0.00671906 7.67701 -0.884893
              }
            }
          }
        }
      }
    }
  }
  JOINT LeftUpLeg
  {
    OFFSET 6.91416 -1.26788 -1.06358
    CHANNELS 3 Zrotation Xrotation Yrotation
    JOINT LeftUpLegRoll
    {
      OFFSET 0 18.3379 0
      CHANNELS 3 Zrotation Xrotation Yrotation
      JOINT LeftLeg
      {
        OFFSET 0 22.7084 0
        CHANNELS 3 Zrotation Xrotation Yrotation
        JOINT LeftLegRoll
        {
          OFFSET 0 22.9934 0
          CHANNELS 3 Zrotation Xrotation Yrotation
          JOINT LeftFoot
          {
            OFFSET 0 18.7522 0
            CHANNELS 3 Zrotation Xrotation Yrotation
            JOINT LeftToeBase
            {
              OFFSET 0 15.852 0
              CHANNELS 3 Zrotation Xrotation Yrotation
              End Site
              {
                OFFSET -0.030112 7.67701 -0.884893
              }
            }
          }
        }
      }
    }
  }
}
MOTION
Frames: 13
Frame Time: 0.00208333
54.0031 94.3143 17.0633 -0.131867 -6.72239 -2.57602 -0.228395 -1.53102 0.361503 -0.443355 0.941294 0.742853 -0.452406 2.58628 0.75051 3.5331 20.4431 -2.68407 10.0934 -15.6856 0.895096 76.6633 -4.00702 -3.73945 106.513 26.4567 -71.4211 3.18055e-015 -3.18055e-015 -1.59028e-014 -151.456 60.2683 120.323 -6.8913e-006 -1.81814e-006 -3 8.02897 -4.95143 0.697704 -64.8136 1.62519 -0.142947 -110.766 16.1347 17.7632 1.12672e-005 -2.36429e-006 -2.4543e-006 175.359 65.4801 -162.566 7.68011e-006 -1.89956e-006 3 -8.0289 -4.95096 -0.697497 176.275 -3.34658 0.952915 180 7.01561e-015 178.984 178.95 8.28971 179.471 -6.61542e-008 -1.14453e-006 -0.0106422 -15.7676 68.2228 19.6892 8.13649 25.2327 -3.48774 -178.977 -3.87308 5.87628 4.54188e-006 -4.6773e-006 -1.35542 -4.93911 -9.61282 -0.217678 2.92052e-006 -3.53508e-006 -0.1844 23.2798 70.9726 -22.5604 -8.13649 25.2327 3.48774 
54.0114 94.3114 17.0571 -0.124368 -6.7157 -2.58632 -0.227854 -1.53243 0.360296 -0.441469 0.938096 0.740015 -0.450513 2.58308 0.747628 3.44906 20.427 -2.65939 10.1599 -15.631 0.902576 76.6001 -4.00357 -3.73386 106.572 26.4261 -71.1759 -3.18055e-015 1.27222e-014 3.18055e-015 -151.664 60.1659 120.499 -6.8913e-006 -1.81814e-006 -3 8.02897 -4.95143 0.697704 -64.8506 1.62479 -0.137733 -110.743 16.1359 17.4799 1.12672e-005 -2.36429e-006 -2.4543e-006 175.446 65.4536 -162.748 7.68011e-006 -1.89956e-006 3 -8.0289 -4.95096 -0.697497 176.264 -3.3388 0.957644 180 7.01561e-015 178.984 178.949 8.28848 179.471 -6.61542e-008 -1.14453e-006 -0.0105841 -15.7595 68.2206 19.6868 8.13649 25.2327 -3.48774 -178.987 -3.87723 5.88383 4.54188e-006 -4.6773e-006 -1.35541 -4.93935 -9.59721 -0.216934 2.92052e-006 -3.53508e-006 -0.18394 23.2757 70.9713 -22.558 -8.13649 25.2327 3.48774 
54.0175 94.312 17.0615 -0.116906 -6.70948 -2.59668 -0.227359 -1.53377 0.359186 -0.439756 0.935067 0.737415 -0.448796 2.58005 0.744987 3.36658 20.4121 -2.63529 10.225 -15.5781 0.909869 76.5407 -4.00023 -3.72858 106.63 26.3961 -70.9326 1.27222e-014 1.59028e-014 -6.36111e-015 -151.868 60.0651 120.672 -6.8913e-006 -1.81814e-006 -3 8.02897 -4.95143 0.697704 -64.8864 1.62366 -0.132277 -110.721 16.1371 17.2061 1.12672e-005 -2.36429e-006 -2.4543e-006 175.53 65.4297 -162.924 7.68011e-006 -1.89956e-006 3 -8.0289 -4.95096 -0.697497 176.253 -3.3316 0.962454 180 7.01561e-015 178.985 178.948 8.28717 179.471 -6.61542e-008 -1.14453e-006 -0.0105261 -15.7516 68.2185 19.6844 8.13649 25.2327 -3.48774 -178.997 -3.88222 5.89143 4.54188e-006 -4.6773e-006 -1.35539 -4.93944 -9.58117 -0.216154 2.92052e-006 -3.53508e-006 -0.183484 23.2711 70.9696 -22.5553 -8.13649 25.2327 3.48774 
54.0166 94.3153 17.0611 -0.109578 -6.70377 -2.60693 -0.226926 -1.53502 0.358216 -0.438274 0.932224 0.735147 -0.447312 2.57721 0.742684 3.28738 20.3985 -2.61234 10.2874 -15.5278 0.916689 76.4869 -3.99714 -3.72376 106.682 26.3674 -70.6935 -4.41391e-031 7.95139e-015 3.18055e-015 -152.067 59.9646 120.84 -6.8913e-006 -1.81814e-006 -3 8.02897 -4.95143 0.697704 -64.9203 1.62169 -0.126638 -110.702 16.1386 16.9434 1.12672e-005 -2.36429e-006 -2.4543e-006 175.61 65.4086 -163.093 7.68011e-006 -1.89956e-006 3 -8.0289 -4.95096 -0.697497 176.242 -3.32502 0.967295 180 7.01561e-015 178.985 178.948 8.28581 179.47 -6.61542e-008 -1.14453e-006 -0.010468 -15.7439 68.2165 19.6821 8.13649 25.2327 -3.48774 -179.007 -3.88793 5.89902 4.54188e-006 -4.6773e-006 -1.35537 -4.93937 -9.56491 -0.21535 2.92052e-006 -3.53508e-006 -0.18304 23.2662 70.9678 -22.5524 -8.13649 25.2327 3.48774 
54.0103 94.314 17.0669 -0.102484 -6.69856 -2.61695 -0.226572 -1.53619 0.357427 -0.43708 0.929588 0.733306 -0.446119 2.57457 0.740815 3.21315 20.3862 -2.59112 10.3457 -15.4804 0.92275 76.4405 -3.9944 -3.71957 106.727 26.3409 -70.4607 3.18055e-015 7.95139e-015 6.36111e-015 -152.261 59.8631 121 -6.8913e-006 -1.81814e-006 -3 8.02897 -4.95143 0.697704 -64.9511 1.61872 -0.120877 -110.686 16.1402 16.6933 1.12672e-005 -2.36429e-006 -2.4543e-006 175.687 65.3906 -163.256 7.68011e-006 -1.89956e-006 3 -8.0289 -4.95096 -0.697497 176.231 -3.31909 0.972116 180 7.01561e-015 178.985 178.947 8.28438 179.47 -6.61542e-008 -1.14453e-006 -0.0104099 -15.7364 68.2145 19.6799 8.13649 25.2327 -3.48774 -179.017 -3.89424 5.90656 4.54188e-006 -4.6773e-006 -1.35534 -4.9391 -9.54862 -0.214533 2.92052e-006 -3.53508e-006 -0.182617 23.261 70.9658 -22.5493 -8.13649 25.2327 3.48774 
54.0144 94.3141 17.0687 -0.0957209 -6.69387 -2.62659 -0.226313 -1.53728 0.356863 -0.436231 0.927175 0.731987 -0.445273 2.57216 0.739475 3.14558 20.3755 -2.57219 10.3985 -15.4367 0.927768 76.4031 -3.99213 -3.71617 106.761 26.3174 -70.2366 -8.82781e-031 7.95139e-015 6.36111e-015 -152.448 59.7594 121.148 -6.8913e-006 -1.81814e-006 -3 8.02897 -4.95143 0.697704 -64.9778 1.61463 -0.115055 -110.674 16.142 16.4574 1.12672e-005 -2.36429e-006 -2.4543e-006 175.76 65.3759 -163.412 7.68011e-006 -1.89956e-006 3 -8.0289 -4.95096 -0.697497 176.22 -3.31385 0.976866 180 7.01561e-015 178.986 178.946 8.2829 179.47 -6.61542e-008 -1.14453e-006 -0.0103519 -15.7294 68.2125 19.6779 8.13649 25.2327 -3.48774 -179.027 -3.90106 5.91397 4.54188e-006 -4.6773e-006 -1.35529 -4.9386 -9.53251 -0.213714 2.92052e-006 -3.53508e-006 -0.182224 23.2556 70.9636 -22.5462 -8.13649 25.2327 3.48774 
54.0061 94.3143 17.0624 -0.0893883 -6.6897 -2.63569 -0.226166 -1.53826 0.356565 -0.435783 0.925006 0.731284 -0.444832 2.56999 0.738762 3.08637 20.3664 -2.55613 10.4445 -15.3972 0.931458 76.3766 -3.99045 -3.71374 106.783 26.2977 -70.0233 2.22639e-014 4.77083e-015 -9.54166e-015 -152.627 59.6522 121.283 -6.8913e-006 -1.81814e-006 -3 8.02897 -4.95143 0.697704 -64.9996 1.6093 -0.109232 -110.669 16.1441 16.2372 1.12672e-005 -2.36429e-006 -2.4543e-006 175.829 65.3648 -163.56 7.68011e-006 -1.89956e-006 3 -8.0289 -4.95096 -0.697497 176.21 -3.30933 0.981494 180 7.01561e-015 178.986 178.946 8.28137 179.47 -6.61542e-008 -1.14453e-006 -0.0102939 -15.7229 68.2107 19.6761 8.13649 25.2327 -3.48774 -179.036 -3.90827 5.9212 4.54188e-006 -4.6773e-006 -1.35524 -4.93786 -9.51677 -0.212905 2.92052e-006 -3.53508e-006 -0.181872 23.2502 70.9614 -22.543 -8.13649 25.2327 3.48774 
54.0135 94.3145 17.069 -0.0835842 -6.68607 -2.64413 -0.226147 -1.53915 0.356576 -0.435793 0.923099 0.731292 -0.444854 2.56808 0.73877 3.03723 20.359 -2.5435 10.4822 -15.3624 0.933535 76.3627 -3.98948 -3.71242 106.787 26.2829 -69.8231 3.18055e-015 -1.59028e-015 -9.54166e-015 -152.798 59.5403 121.4 -6.8913e-006 -1.81814e-006 -3 8.02897 -4.95143 0.697704 -65.0154 1.60258 -0.103469 -110.67 16.1464 16.0342 1.12672e-005 -2.36429e-006 -2.4543e-006 175.894 65.3577 -163.7 7.68011e-006 -1.89956e-006 3 -8.0289 -4.95096 -0.697497 176.2 -3.30557 0.98595 180 7.01561e-015 178.986 178.945 8.27979 179.47 -6.61542e-008 -1.14453e-006 -0.0102359 -15.717 68.2091 19.6745 8.13649 25.2327 -3.48774 -179.045 -3.91575 5.9282 4.54188e-006 -4.6773e-006 -1.35518 -4.93682 -9.50161 -0.212117 2.92052e-006 -3.53508e-006 -0.181567 23.2447 70.9591 -22.5398 -8.13649 25.2327 3.48774 
54.0167 94.3135 17.0664 -0.0781059 -6.68318 -2.65222 -0.226268 -1.53993 0.35688 -0.436318 0.921484 0.731982 -0.445394 2.56646 0.739472 2.99593 20.3538 -2.53356 10.5137 -15.3324 0.934477 76.3599 -3.98908 -3.71207 106.779 26.2723 -69.6308 -5.29669e-031 -4.77083e-015 -6.36111e-015 -152.965 59.4233 121.506 -6.8913e-006 -1.81814e-006 -3 8.02897 -4.95143 0.697704 -65.0263 1.59421 -0.0974803 -110.676 16.1504 15.8426 1.12672e-005 -2.36429e-006 -2.4543e-006 175.957 65.3545 -163.835 7.68011e-006 -1.89956e-006 3 -8.0289 -4.95096 -0.697497 176.19 -3.3028 0.990316 180 7.01561e-015 178.987 178.944 8.27809 179.47 -6.61542e-008 -1.14453e-006 -0.0101779 -15.7115 68.2075 19.6732 8.13649 25.2327 -3.48774 -179.054 -3.92436 5.93527 4.54188e-006 -4.6773e-006 -1.3551 -4.93537 -9.48614 -0.211288 2.92052e-006 -3.53508e-006 -0.181297 23.239 70.9566 -22.5365 -8.13649 25.2327 3.48774 
54.0184 94.3147 17.0698 -0.0726915 -6.68117 -2.66038 -0.226516 -1.54058 0.357416 -0.437334 0.920165 0.733225 -0.446428 2.56514 0.740739 2.9589 20.3512 -2.52512 10.5418 -15.3064 0.934961 76.365 -3.989 -3.71236 106.762 26.2645 -69.4401 1.59028e-014 2.70347e-014 1.27222e-014 -153.131 59.3021 121.607 -6.8913e-006 -1.81814e-006 -3 8.02897 -4.95143 0.697704 -65.0342 1.58414 -0.0909871 -110.687 16.1573 15.6564 1.12672e-005 -2.36429e-006 -2.4543e-006 176.018 65.3552 -163.971 7.68011e-006 -1.89956e-006 3 -8.0289 -4.95096 -0.697497 176.181 -3.30114 0.994713 180 7.01561e-015 178.987 178.944 8.27625 179.47 -6.61542e-008 -1.14453e-006 -0.0101198 -15.7063 68.206 19.672 8.13649 25.2327 -3.48774 -179.062 -3.93486 5.94271 4.54188e-006 -4.6773e-006 -1.355 -4.93343 -9.46948 -0.210361 2.92052e-006 -3.53508e-006 -0.181042 23.2324 70.9538 -22.5327 -8.13649 25.2327 3.48774 
54.0254 94.3165 17.0695 -0.0673504 -6.67995 -2.66858 -0.226876 -1.54111 0.35816 -0.438775 0.919113 0.734961 -0.447892 2.56409 0.742509 2.92577 20.3507 -2.51804 10.5668 -15.2841 0.935008 76.3774 -3.98921 -3.71326 106.739 26.2594 -69.2512 6.36111e-015 1.11319e-014 -3.18055e-015 -153.295 59.1779 121.703 -6.8913e-006 -1.81814e-006 -3 8.02897 -4.95143 0.697704 -65.0393 1.57258 -0.0840591 -110.701 16.1665 15.4768 1.12672e-005 -2.36429e-006 -2.4543e-006 176.079 65.3596 -164.105 7.68011e-006 -1.89956e-006 3 -8.0289 -4.95096 -0.697497 176.171 -3.30048 0.999145 180 7.01561e-015 178.987 178.944 8.27425 179.469 -6.61542e-008 -1.14453e-006 -0.0100616 -15.7014 68.2045 19.6709 8.13649 25.2327 -3.48774 -179.071 -3.94698 5.95043 4.54188e-006 -4.6773e-006 -1.3549 -4.93108 -9.45183 -0.209352 2.92052e-006 -3.53508e-006 -0.180799 23.2252 70.9507 -22.5286 -8.13649 25.2327 3.48774 
54.026 94.316 17.0711 -0.0620924 -6.67943 -2.67679 -0.227332 -1.54155 0.359088 -0.440579 0.918303 0.737134 -0.449721 2.56328 0.744725 2.89618 20.3522 -2.51221 10.589 -15.265 0.934637 76.3963 -3.9897 -3.7147 106.709 26.2569 -69.0645 -3.18055e-015 -6.36111e-015 -6.36111e-015 -153.456 59.052 121.795 -6.8913e-006 -1.81814e-006 -3 8.02897 -4.95143 0.697704 -65.042 1.55973 -0.0767662 -110.718 16.1774 15.3051 1.12672e-005 -2.36429e-006 -2.4543e-006 176.138 65.3673 -164.236 7.68011e-006 -1.89956e-006 3 -8.0289 -4.95096 -0.697497 176.161 -3.3007 1.00362 180 7.01561e-015 178.987 178.944 8.27214 179.469 -6.61542e-008 -1.14453e-006 -0.0100034 -15.6966 68.2031 19.67 8.13649 25.2327 -3.48774 -179.08 -3.96048 5.95836 4.54188e-006 -4.6773e-006 -1.35478 -4.92839 -9.43342 -0.208278 2.92052e-006 -3.53508e-006 -0.180569 23.2174 70.9473 -22.5242 -8.13649 25.2327 3.48774 
54.0216 94.3357 17.0756 -0.0569269 -6.67952 -2.68498 -0.227866 -1.54189 0.360174 -0.44268 0.91771 0.739685 -0.45185 2.56269 0.747325 2.86975 20.3553 -2.5075 10.6086 -15.2487 0.933867 76.4211 -3.99042 -3.71663 106.673 26.2569 -68.8806 6.36111e-015 0 -9.54166e-015 -153.614 58.9254 121.882 -6.8913e-006 -1.81814e-006 -3 8.02897 -4.95143 0.697704 -65.0425 1.5458 -0.069178 -110.738 16.1896 15.1423 1.12672e-005 -2.36429e-006 -2.4543e-006 176.195 65.3782 -164.363 7.68011e-006 -1.89956e-006 3 -8.0289 -4.95096 -0.697497 176.151 -3.30168 1.00813 180 7.01561e-015 178.987 178.944 8.26991 179.469 -6.61542e-008 -1.14453e-006 -0.00994507 -15.692 68.2018 19.6691 8.13649 25.2327 -3.48774 -179.09 -3.97507 5.96642 4.54188e-006 -4.6773e-006 -1.35465 -4.92544 -9.41443 -0.207153 2.92052e-006 -3.53508e-006 -0.180349 23.2091 70.9436 -22.5195 -8.13649 25.2327 3.48774 
